<svg height="64" width="64" xmlns="http://www.w3.org/2000/svg" xmlns:xlink="http://www.w3.org/1999/xlink"><linearGradient id="a" gradientUnits="userSpaceOnUse" x1="48.127" x2="32.718" y1="47.197" y2="17.724"><stop offset="0" stop-color="#1e74bb"/><stop offset="1" stop-color="#1266a7"/></linearGradient><linearGradient id="b" gradientUnits="userSpaceOnUse" x1="38.404" x2="55.737" y1="19.581" y2="50.914"><stop offset="0" stop-color="#2777b2"/><stop offset="1" stop-color="#287abf"/></linearGradient><g transform="matrix(1.056106 0 0 1.056106 .052806 0)"><path d="m10.4 27.6-4.4 4.3 20.2 19.7 34.2-46.5a6.28 6.28 0 0 0 -5.7-4.9l-30.6 32.3z" fill="#f5f9fd"/><path d="m6.3 32.2 19.8 19.3z" fill="#fff"/><path d="m60.5 54.3v-47.9c0-.5-.1-1-.2-1.4l-34.2 46.5-19.8-19.4h-.1l14.7 28.5h33.3c3.4 0 6.3-2.8 6.3-6.3z" fill="url(#a)"/><path d="m60.5 54.3v-47.9c0-.5-.1-1-.2-1.4l-34.2 46.5 5.5 9.1h22.5c3.5 0 6.4-2.8 6.4-6.3z" fill="url(#b)"/><path d="m6.3.1c-3.5 0-6.3 2.9-6.3 6.3v47.9c0 3.5 2.9 6.3 6.3 6.3h14.6l-14.7-28.5h.1l-.3-.3 4.4-4.3 13.6 4.8 30.6-32.3h-.4z" fill="#3084c6"/></g></svg>